<svg width="20" height="20" viewBox="0 0 20 20" fill="none" xmlns="http://www.w3.org/2000/svg">
<g clip-path="url(#clip0_65_37)">
<path fill-rule="evenodd" clip-rule="evenodd" d="M19.8887 10.5683C19.8887 9.89427 19.8272 9.24562 19.7125 8.6239H10.5786V12.3004H15.7977C15.6898 12.8819 15.4628 13.4359 15.1302 13.9289C14.7977 14.422 14.3666 14.8438 13.863 15.169V17.5529H16.997C18.8308 15.8992 19.8887 13.4622 19.8887 10.5675V10.5683Z" fill="#4285F4"/>
<path fill-rule="evenodd" clip-rule="evenodd" d="M10.5789 19.856C13.1973 19.856 15.3923 19.0046 16.9973 17.5536L13.8632 15.1689C12.9945 15.7391 11.8832 16.0757 10.5789 16.0757C8.05334 16.0757 5.91575 14.4046 5.15204 12.1577H1.91211V14.6208C2.71925 16.1952 3.95725 17.5186 5.48776 18.4431C7.01827 19.3676 8.78097 19.8568 10.5789 19.856Z" fill="#34A853"/>
<path fill-rule="evenodd" clip-rule="evenodd" d="M5.152 12.1578C4.95262 11.5757 4.85029 10.966 4.84894 10.352C4.84894 9.72633 4.95885 9.11649 5.15281 8.54625V6.08313H1.91208C1.23321 7.40776 0.880053 8.86969 0.880861 10.352C0.880861 11.8853 1.25585 13.3378 1.91208 14.6209L5.15281 12.1578H5.152Z" fill="#FBBC05"/>
<path fill-rule="evenodd" clip-rule="evenodd" d="M10.5789 4.62824C12.0028 4.62824 13.2813 5.1074 14.2859 6.04909L17.0676 3.32302C15.3882 1.7905 13.1933 0.848022 10.5789 0.848022C6.78857 0.848022 3.50742 2.9785 1.91211 6.08314L5.15284 8.54626C5.91413 6.30015 8.05253 4.62824 10.5789 4.62824Z" fill="#EA4335"/>
</g>
<defs>
<clipPath id="clip0_65_37">
<rect width="19.008" height="19.008" fill="white" transform="translate(0.880371 0.848022)"/>
</clipPath>
</defs>
</svg>
