<svg width="21" height="18" viewBox="0 0 21 18" fill="none" xmlns="http://www.w3.org/2000/svg">
<path d="M7.31094 9C9.50133 9 11.2766 6.9852 11.2766 4.5C11.2766 2.0148 9.50133 0 7.31094 0C5.12055 0 3.34531 2.0148 3.34531 4.5C3.34531 6.9852 5.12055 9 7.31094 9ZM8.8817 10.6875H5.74018C2.77432 10.6875 0.371094 13.4156 0.371094 16.7801C0.371094 17.4551 0.851926 18 1.44491 18H13.1757C13.7706 18 14.2508 17.4551 14.2508 16.7801C14.2508 13.4156 11.8466 10.6875 8.8817 10.6875ZM15.2143 11.25H12.9263C14.3499 12.5754 15.2422 14.5582 15.2422 16.7801C15.2422 17.2301 15.1245 17.6449 14.9324 18H19.2078C19.7562 18 20.1992 17.4937 20.1992 16.8434C20.1992 13.7672 17.9809 11.25 15.2143 11.25ZM13.7551 9C15.6728 9 17.225 7.23867 17.225 5.0625C17.225 2.88633 15.6728 1.125 13.7551 1.125C12.9771 1.125 12.2667 1.42576 11.688 1.91637C12.0449 2.69402 12.268 3.56484 12.268 4.5C12.268 5.74875 11.8984 6.89555 11.2893 7.82965C11.9179 8.55 12.7885 9 13.7551 9Z" fill="black"/>
</svg>
